<?xml version="1.0" standalone="no"?>
<!DOCTYPE svg PUBLIC "-//W3C//DTD SVG 20010904//EN"
 "http://www.w3.org/TR/2001/REC-SVG-20010904/DTD/svg10.dtd">
<svg version="1.0" xmlns="http://www.w3.org/2000/svg"
 width="416.000000pt" height="416.000000pt" viewBox="0 0 416.000000 416.000000"
 preserveAspectRatio="xMidYMid meet">
<metadata>
Created by potrace 1.11, written by Peter Selinger 2001-2013
</metadata>
<g transform="translate(0.000000,416.000000) scale(0.100000,-0.100000)"
fill="#000000" stroke="none">
<path d="M779 2748 l-34 -93 -138 -3 -137 -3 0 -44 0 -45 115 0 c79 0 115 -4
115 -11 0 -7 -95 -264 -212 -573 -116 -308 -213 -567 -216 -574 -3 -10 9 -12
53 -10 l58 3 82 220 82 220 314 3 314 2 81 -222 80 -223 61 -3 61 -3 -204 548
c-113 301 -211 565 -219 586 l-15 37 740 0 740 0 0 -585 0 -585 55 0 55 0 0
345 0 345 410 0 410 0 0 -345 0 -345 55 0 55 0 0 585 0 585 185 0 185 0 0 45
0 45 -185 0 -185 0 0 95 0 95 -55 0 -55 0 0 -95 0 -95 -410 0 -410 0 0 95 0
95 -55 0 -55 0 0 -95 0 -95 -757 2 -758 3 -34 93 -34 92 -52 0 -52 0 -34 -92z
m97 -95 c-2 -3 -11 -3 -19 -1 -11 2 -12 9 -5 28 l10 25 9 -24 c5 -13 7 -26 5
-28z m145 -393 c59 -162 108 -301 109 -307 0 -10 -60 -13 -270 -13 -148 0
-270 2 -270 5 0 2 45 129 101 282 56 153 106 291 111 306 10 26 13 28 60 25
l51 -3 108 -295z m2409 110 l0 -190 -410 0 -410 0 0 190 0 190 410 0 410 0 0
-190z"/>
<path d="M1853 2441 c-56 -14 -137 -67 -170 -110 -41 -53 -56 -110 -50 -186 9
-120 61 -175 257 -275 148 -75 192 -106 215 -151 21 -40 19 -127 -4 -169 -63
-120 -282 -130 -449 -19 l-33 22 3 -59 3 -59 55 -27 c33 -17 87 -32 136 -39
253 -36 444 121 404 331 -20 103 -81 160 -268 247 -136 64 -180 96 -204 151
-42 94 -6 192 90 238 47 24 60 26 140 22 82 -5 114 -14 215 -66 4 -2 7 21 7
51 l0 55 -52 22 c-42 18 -75 24 -158 26 -58 2 -119 -1 -137 -5z"/>
</g>
</svg>
